<svg width="1200" height="720" viewBox="0 0 1200 720" fill="none" xmlns="http://www.w3.org/2000/svg">
  <rect width="1200" height="720" fill="#030712"/>
  <path d="M0 0h1200v720H0z" fill="url(#bg)"/>
  <rect x="72" y="58" width="1056" height="604" rx="18" fill="#ffffff" fill-opacity="0.045" stroke="#ffffff" stroke-opacity="0.12"/>
  <rect x="98" y="90" width="1004" height="70" rx="10" fill="#ffffff" fill-opacity="0.055" stroke="#ffffff" stroke-opacity="0.1"/>
  <text x="124" y="120" fill="#a5f3fc" font-family="Inter, Arial, sans-serif" font-size="16" font-weight="800">TensorFlow webgl</text>
  <text x="124" y="146" fill="#cbd5e1" font-family="Inter, Arial, sans-serif" font-size="18">5 objects in frame</text>
  <circle cx="902" cy="125" r="7" fill="#34d399"/>
  <text x="920" y="132" fill="#e5e7eb" font-family="Inter, Arial, sans-serif" font-size="18" font-weight="700">Scanning</text>
  <rect x="1006" y="102" width="76" height="46" rx="8" fill="#ef4444"/>
  <text x="1044" y="131" text-anchor="middle" fill="#111827" font-family="Inter, Arial, sans-serif" font-size="14" font-weight="800">Stop</text>
  <rect x="98" y="184" width="704" height="396" rx="12" fill="#020617" stroke="#ffffff" stroke-opacity="0.12"/>
  <rect x="122" y="208" width="656" height="348" rx="8" fill="url(#camera)"/>
  <rect x="164" y="266" width="118" height="176" rx="8" fill="#22c55e" fill-opacity="0.14" stroke="#22c55e" stroke-width="5"/>
  <rect x="164" y="238" width="118" height="30" rx="4" fill="#22c55e"/>
  <text x="171" y="259" fill="#020617" font-family="Inter, Arial, sans-serif" font-size="15" font-weight="800">person 91%</text>
  <rect x="408" y="330" width="170" height="102" rx="8" fill="#06b6d4" fill-opacity="0.14" stroke="#06b6d4" stroke-width="5"/>
  <rect x="408" y="302" width="112" height="30" rx="4" fill="#06b6d4"/>
  <text x="416" y="323" fill="#020617" font-family="Inter, Arial, sans-serif" font-size="15" font-weight="800">laptop 84%</text>
  <rect x="594" y="286" width="92" height="132" rx="8" fill="#f59e0b" fill-opacity="0.14" stroke="#f59e0b" stroke-width="5"/>
  <rect x="594" y="258" width="90" height="30" rx="4" fill="#f59e0b"/>
  <text x="601" y="279" fill="#020617" font-family="Inter, Arial, sans-serif" font-size="15" font-weight="800">bottle 76%</text>
  <rect x="826" y="184" width="276" height="396" rx="12" fill="#ffffff" fill-opacity="0.055" stroke="#ffffff" stroke-opacity="0.12"/>
  <text x="852" y="232" fill="#ffffff" font-family="Inter, Arial, sans-serif" font-size="24" font-weight="800">Live Objects</text>
  <text x="852" y="264" fill="#94a3b8" font-family="Inter, Arial, sans-serif" font-size="16">Confidence 50%+</text>
  <text x="1044" y="262" text-anchor="middle" fill="#67e8f9" font-family="Inter, Arial, sans-serif" font-size="54" font-weight="900">5</text>
  <text x="852" y="322" fill="#e5e7eb" font-family="Inter, Arial, sans-serif" font-size="17">person</text>
  <text x="1054" y="322" text-anchor="end" fill="#86efac" font-family="Inter, Arial, sans-serif" font-size="17" font-weight="800">2</text>
  <text x="852" y="364" fill="#e5e7eb" font-family="Inter, Arial, sans-serif" font-size="17">laptop</text>
  <text x="1054" y="364" text-anchor="end" fill="#86efac" font-family="Inter, Arial, sans-serif" font-size="17" font-weight="800">1</text>
  <text x="852" y="406" fill="#e5e7eb" font-family="Inter, Arial, sans-serif" font-size="17">bottle</text>
  <text x="1054" y="406" text-anchor="end" fill="#86efac" font-family="Inter, Arial, sans-serif" font-size="17" font-weight="800">1</text>
  <rect x="852" y="456" width="202" height="2" fill="#ffffff" fill-opacity="0.12"/>
  <text x="852" y="498" fill="#cbd5e1" font-family="Inter, Arial, sans-serif" font-size="18" font-weight="800">Top Matches</text>
  <rect x="852" y="524" width="190" height="8" rx="4" fill="#ffffff" fill-opacity="0.1"/>
  <rect x="852" y="524" width="173" height="8" rx="4" fill="#fbbf24"/>
  <rect x="852" y="552" width="190" height="8" rx="4" fill="#ffffff" fill-opacity="0.1"/>
  <rect x="852" y="552" width="160" height="8" rx="4" fill="#fbbf24"/>
  <defs>
    <linearGradient id="bg" x1="0" y1="0" x2="1200" y2="720" gradientUnits="userSpaceOnUse">
      <stop stop-color="#064e3b" stop-opacity="0.65"/>
      <stop offset="0.5" stop-color="#020617"/>
      <stop offset="1" stop-color="#083344" stop-opacity="0.65"/>
    </linearGradient>
    <linearGradient id="camera" x1="122" y1="208" x2="778" y2="556" gradientUnits="userSpaceOnUse">
      <stop stop-color="#1f2937"/>
      <stop offset="0.5" stop-color="#334155"/>
      <stop offset="1" stop-color="#111827"/>
    </linearGradient>
  </defs>
</svg>
